<svg width="75" height="75" viewBox="0 0 75 75" fill="none" xmlns="http://www.w3.org/2000/svg">
<path d="M64.1155 29.4496C62.4127 23.7733 59.6519 18.9548 56.1652 15.5735C52.6785 12.1923 48.6142 10.3921 44.461 10.3895C42.7762 10.4099 41.0992 10.7353 39.4665 11.3587C37.4213 7.03267 34.5692 3.70788 31.2679 1.80124C27.9667 -0.105398 24.3632 -0.508991 20.9095 0.641077C17.4557 1.79114 14.3055 4.44367 11.8538 8.26599C9.40214 12.0883 7.75821 16.9103 7.12818 22.1271C4.77732 23.3953 2.79346 25.8478 1.51584 29.0653C0.238227 32.2829 -0.253802 36.0655 0.12389 39.7665C0.501583 43.4675 1.72554 46.857 3.58647 49.3553C5.4474 51.8536 7.82973 53.3057 10.3261 53.4632H13.9192C13.8818 54.3597 13.8818 55.2588 13.9192 56.1553C13.9192 61.1532 15.2442 65.9464 17.6027 69.4805C19.9611 73.0146 23.1599 75 26.4952 75H59.4444C63.1607 74.999 66.7541 73.0047 69.5742 69.3779C72.3944 65.7511 74.255 60.7315 74.8195 55.2273C75.3839 49.7231 74.6149 44.0979 72.6515 39.3697C70.6882 34.6415 67.6602 31.1225 64.1155 29.4496ZM10.3261 42.6947C9.37312 42.6947 8.45919 42.1275 7.78534 41.1177C7.1115 40.108 6.73293 38.7385 6.73293 37.3105C6.73293 35.8826 7.1115 34.5131 7.78534 33.5033C8.45919 32.4936 9.37312 31.9263 10.3261 31.9263C11.279 31.9263 12.193 31.3591 12.8668 30.3493C13.5407 29.3396 13.9192 27.9701 13.9192 26.5421C13.9192 22.2582 15.0549 18.1497 17.0765 15.1205C19.098 12.0913 21.8398 10.3895 24.6987 10.3895C26.2056 10.4016 27.694 10.887 29.068 11.8144C30.4419 12.7418 31.6709 14.0906 32.6755 15.7737C30.1255 18.2599 27.9555 21.5266 26.3082 25.3592C24.6609 29.1917 23.5736 33.5033 23.1177 38.0105C21.0867 38.8676 19.2329 40.4787 17.728 42.6947H10.3261ZM59.4444 64.2316H26.4952C25.0658 64.2316 23.6949 63.3807 22.6841 61.8661C21.6734 60.3515 21.1055 58.2972 21.1055 56.1553C21.1055 54.0133 21.6734 51.9591 22.6841 50.4445C23.6949 48.9299 25.0658 48.079 26.4952 48.079C27.4482 48.079 28.3621 47.5117 29.036 46.502C29.7098 45.4922 30.0884 44.1227 30.0884 42.6947C30.1038 37.6104 31.3191 32.6982 33.5193 28.8276C35.7194 24.9569 38.7625 22.3775 42.1098 21.5458C45.4572 20.7141 48.893 21.6838 51.809 24.2833C54.7251 26.8827 56.9334 30.9443 58.0431 35.7491C58.2485 36.6743 58.6177 37.4986 59.1113 38.134C59.6049 38.7693 60.2044 39.1919 60.8457 39.3565C62.8852 39.9279 64.7104 41.6137 65.9675 44.0871C67.2246 46.5606 67.824 49.6453 67.6495 52.7433C67.4749 55.8413 66.5389 58.7319 65.0229 60.8545C63.5069 62.9771 61.5189 64.1806 59.4444 64.2316Z" fill="#8DCDFC"/>
</svg>
