<svg width="75" height="75" viewBox="0 0 75 75" fill="none" xmlns="http://www.w3.org/2000/svg">
<path d="M37.5427 63.7425C36.5471 63.7425 35.5921 64.1379 34.8881 64.8416C34.184 65.5453 33.7885 66.4998 33.7885 67.495V71.2475C33.7885 72.2427 34.184 73.1972 34.8881 73.9009C35.5921 74.6047 36.5471 75 37.5427 75C38.5384 75 39.4933 74.6047 40.1974 73.9009C40.9015 73.1972 41.297 72.2427 41.297 71.2475V67.495C41.297 66.4998 40.9015 65.5453 40.1974 64.8416C39.4933 64.1379 38.5384 63.7425 37.5427 63.7425ZM22.5257 33.7226C21.53 33.7226 20.5751 34.1179 19.871 34.8217C19.1669 35.5254 18.7714 36.4798 18.7714 37.4751V41.2276C18.7714 42.2228 19.1669 43.1772 19.871 43.881C20.5751 44.5847 21.53 44.9801 22.5257 44.9801C23.5214 44.9801 24.4763 44.5847 25.1803 43.881C25.8844 43.1772 26.2799 42.2228 26.2799 41.2276V37.4751C26.2799 36.4798 25.8844 35.5254 25.1803 34.8217C24.4763 34.1179 23.5214 33.7226 22.5257 33.7226ZM22.5257 52.485C21.53 52.485 20.5751 52.8804 19.871 53.5841C19.1669 54.2878 18.7714 55.2423 18.7714 56.2375V59.99C18.7714 60.9852 19.1669 61.9397 19.871 62.6434C20.5751 63.3472 21.53 63.7425 22.5257 63.7425C23.5214 63.7425 24.4763 63.3472 25.1803 62.6434C25.8844 61.9397 26.2799 60.9852 26.2799 59.99V56.2375C26.2799 55.2423 25.8844 54.2878 25.1803 53.5841C24.4763 52.8804 23.5214 52.485 22.5257 52.485ZM37.5427 44.9801C36.5471 44.9801 35.5921 45.3754 34.8881 46.0791C34.184 46.7829 33.7885 47.7373 33.7885 48.7325V52.485C33.7885 53.4803 34.184 54.4347 34.8881 55.1385C35.5921 55.8422 36.5471 56.2375 37.5427 56.2375C38.5384 56.2375 39.4933 55.8422 40.1974 55.1385C40.9015 54.4347 41.297 53.4803 41.297 52.485V48.7325C41.297 47.7373 40.9015 46.7829 40.1974 46.0791C39.4933 45.3754 38.5384 44.9801 37.5427 44.9801ZM61.6451 15.7857C59.3512 10.5172 55.3923 6.14579 50.3751 3.34136C45.3578 0.536937 39.559 -0.545824 33.8672 0.259C28.1754 1.06382 22.9046 3.71183 18.8625 7.79725C14.8204 11.8827 12.2299 17.1801 11.4881 22.8779C8.21221 23.6695 5.29796 25.5396 3.21421 28.1873C1.13046 30.835 -0.00162603 34.1064 7.46175e-05 37.4751C-0.00662859 39.6006 0.438374 41.7032 1.30563 43.6439C2.17289 45.5846 3.44262 47.3191 5.03079 48.7325C5.39629 49.0834 5.82909 49.3568 6.3031 49.536C6.77711 49.7152 7.28252 49.7967 7.78887 49.7754C8.29522 49.7542 8.79203 49.6307 9.24935 49.4124C9.70667 49.1941 10.115 48.8855 10.4498 48.5052C10.7846 48.125 11.0389 47.6809 11.1974 47.1997C11.3559 46.7186 11.4153 46.2103 11.372 45.7056C11.3287 45.2009 11.1836 44.7102 10.9455 44.263C10.7074 43.8159 10.3811 43.4216 9.98642 43.1038C9.19917 42.3937 8.57133 41.5249 8.14425 40.5547C7.71717 39.5846 7.50054 38.535 7.50861 37.4751C7.50861 35.4846 8.29968 33.5757 9.70781 32.1682C11.1159 30.7608 13.0258 29.9701 15.0171 29.9701C16.0128 29.9701 16.9677 29.5747 17.6718 28.871C18.3759 28.1673 18.7714 27.2128 18.7714 26.2176C18.781 21.7794 20.3643 17.4884 23.24 14.1067C26.1157 10.7251 30.0976 8.47186 34.4783 7.74734C38.859 7.02282 43.3548 7.87392 47.1671 10.1494C50.9793 12.425 53.8611 15.9776 55.3004 20.1761C55.515 20.8209 55.9008 21.3954 56.4165 21.8382C56.9323 22.281 57.5586 22.5755 58.2288 22.6902C60.8348 23.1396 63.1996 24.4912 64.9088 26.5083C66.6179 28.5254 67.5625 31.0793 67.5769 33.7226C67.6343 36.4855 66.6415 39.1674 64.7987 41.2276C64.1993 41.9736 63.9077 42.9203 63.9834 43.8741C64.0592 44.8279 64.4966 45.7167 65.2062 46.3589C65.9158 47.0011 66.844 47.348 67.8011 47.3289C68.7581 47.3098 69.6717 46.9259 70.355 46.2559C72.4229 43.8939 73.8649 41.0512 74.5491 37.9879C75.2332 34.9247 75.1376 31.7389 74.271 28.7221C73.4044 25.7054 71.7945 22.9541 69.5887 20.7203C67.3829 18.4865 64.6517 16.8414 61.6451 15.9358V15.7857ZM52.5598 33.7226C51.5641 33.7226 50.6092 34.1179 49.9051 34.8217C49.2011 35.5254 48.8055 36.4798 48.8055 37.4751V41.2276C48.8055 42.2228 49.2011 43.1772 49.9051 43.881C50.6092 44.5847 51.5641 44.9801 52.5598 44.9801C53.5555 44.9801 54.5104 44.5847 55.2145 43.881C55.9185 43.1772 56.3141 42.2228 56.3141 41.2276V37.4751C56.3141 36.4798 55.9185 35.5254 55.2145 34.8217C54.5104 34.1179 53.5555 33.7226 52.5598 33.7226ZM52.5598 52.485C51.5641 52.485 50.6092 52.8804 49.9051 53.5841C49.2011 54.2878 48.8055 55.2423 48.8055 56.2375V59.99C48.8055 60.9852 49.2011 61.9397 49.9051 62.6434C50.6092 63.3472 51.5641 63.7425 52.5598 63.7425C53.5555 63.7425 54.5104 63.3472 55.2145 62.6434C55.9185 61.9397 56.3141 60.9852 56.3141 59.99V56.2375C56.3141 55.2423 55.9185 54.2878 55.2145 53.5841C54.5104 52.8804 53.5555 52.485 52.5598 52.485ZM37.5427 26.2176C36.5471 26.2176 35.5921 26.6129 34.8881 27.3167C34.184 28.0204 33.7885 28.9749 33.7885 29.9701V33.7226C33.7885 34.7178 34.184 35.6723 34.8881 36.376C35.5921 37.0797 36.5471 37.4751 37.5427 37.4751C38.5384 37.4751 39.4933 37.0797 40.1974 36.376C40.9015 35.6723 41.297 34.7178 41.297 33.7226V29.9701C41.297 28.9749 40.9015 28.0204 40.1974 27.3167C39.4933 26.6129 38.5384 26.2176 37.5427 26.2176Z" fill="#8DCDFC"/>
</svg>
