<svg width="75" height="75" viewBox="0 0 75 75" fill="none" xmlns="http://www.w3.org/2000/svg">
<path d="M72.99 48.9466L69.6006 50.4486L72.6923 52.0521C74.4217 52.9519 75.0029 54.919 73.9917 56.4508C73.316 57.472 72.1017 58.0412 70.8542 58.0412C70.2305 58.0412 69.602 57.8989 69.0256 57.6018L65.3211 55.6805V58.9285C65.3211 60.703 63.6956 62.1428 61.6922 62.1428C59.6887 62.1428 58.0633 60.703 58.0633 58.9285V51.9158L41.1278 43.132L41.2359 61.2746L48.7973 64.6247C50.5928 65.4199 51.3205 67.3493 50.4228 68.9355C49.7848 70.0655 48.5044 70.7142 47.1718 70.7142C46.6285 70.7142 46.0756 70.6054 45.5559 70.3752L41.279 68.4822L41.2985 71.769C41.308 73.5435 39.692 74.9916 37.6886 75H37.6696C35.6733 75 34.0502 73.5728 34.0407 71.8025L34.0201 68.3499L29.4456 70.3753C27.6524 71.1705 25.4741 70.5302 24.5763 68.9356C23.6809 67.3494 24.4062 65.42 26.1994 64.6248L33.9775 61.1792L33.8697 43.0926L16.9357 51.8757V58.9286C16.9357 60.7032 15.3103 62.1429 13.3068 62.1429C11.3034 62.1429 9.67793 60.7032 9.67793 58.9286V55.6401L5.89546 57.6019C5.31899 57.8991 4.68819 58.0414 4.06446 58.0414C2.81941 58.0414 1.60503 57.4722 0.931701 56.451C-0.0818269 54.9192 0.499331 52.9521 2.22877 52.0522L5.35562 50.4304L2.00668 48.9468C0.213468 48.1516 -0.511827 46.2222 0.383593 44.6359C1.28138 43.0414 3.45964 42.4094 5.25285 43.1962L12.8326 46.5523L30.2775 37.5042L12.8237 28.4515L5.25285 31.8039C4.73073 32.0341 4.17788 32.1429 3.63214 32.1429C2.30202 32.1429 1.01913 31.4942 0.383593 30.3642C-0.511827 28.778 0.213468 26.8486 2.00668 26.0534L5.34706 24.5736L2.22877 22.9562C0.499379 22.0564 -0.0818269 20.0893 0.931701 18.5575C1.94523 17.0257 4.17313 16.5193 5.89546 17.4066L9.67793 19.3684V16.0715C9.67793 14.2969 11.3034 12.8572 13.3068 12.8572C15.3103 12.8572 16.9357 14.2969 16.9357 16.0715V23.1328L33.8027 31.8813L33.6943 13.6866L26.2017 10.3753C24.4085 9.58431 23.6808 7.65488 24.5763 6.0645C25.4717 4.47827 27.6547 3.82958 29.4432 4.62476L33.6515 6.4851L33.632 3.23104C33.6225 1.4565 35.2385 0.0084 37.242 0H37.2609C39.2572 0 40.8803 1.42718 40.8898 3.19753L40.9104 6.67834L45.5558 4.62467C47.3561 3.82946 49.5344 4.47818 50.4227 6.06441C51.3205 7.6548 50.5881 9.58422 48.7972 10.3752L40.9533 13.8419L41.0611 31.9111L58.0633 23.0924V16.0714C58.0633 14.2969 59.6887 12.8571 61.6922 12.8571C63.6956 12.8571 65.3211 14.2969 65.3211 16.0714V19.3278L69.0256 17.4065C70.7503 16.5151 72.9758 17.0215 73.9917 18.5575C75.0028 20.0893 74.4217 22.0564 72.6923 22.9562L69.6094 24.5552L72.99 26.0533C74.7855 26.8485 75.5132 28.7779 74.6154 30.3641C73.9775 31.4942 72.697 32.1429 71.3645 32.1429C70.8211 32.1429 70.2683 32.0341 69.7485 31.8039L62.1334 28.4327L44.6436 37.5042L62.1248 46.5711L69.7485 43.1962C71.5441 42.4009 73.7176 43.0413 74.6154 44.6359C75.5132 46.2221 74.7856 48.1514 72.99 48.9466Z" fill="#41A6EF"/>
</svg>
