<svg width="75" height="75" viewBox="0 0 75 75" fill="none" xmlns="http://www.w3.org/2000/svg">
<path d="M11.25 37.5C11.25 36.5054 10.8549 35.5516 10.1516 34.8484C9.44839 34.1451 8.49456 33.75 7.5 33.75H3.75C2.75544 33.75 1.80161 34.1451 1.09835 34.8484C0.395088 35.5516 0 36.5054 0 37.5C0 38.4946 0.395088 39.4484 1.09835 40.1516C1.80161 40.8549 2.75544 41.25 3.75 41.25H7.5C8.49456 41.25 9.44839 40.8549 10.1516 40.1516C10.8549 39.4484 11.25 38.4946 11.25 37.5ZM13.65 56.25L10.9875 58.9125C10.2891 59.6151 9.89703 60.5656 9.89703 61.5563C9.89703 62.547 10.2891 63.4974 10.9875 64.2C11.6901 64.8984 12.6406 65.2905 13.6313 65.2905C14.6219 65.2905 15.5724 64.8984 16.275 64.2L18.9375 61.5375C19.5518 60.8201 19.8729 59.8973 19.8364 58.9536C19.8 58.0098 19.4087 57.1145 18.7409 56.4466C18.073 55.7788 17.1777 55.3875 16.2339 55.3511C15.2902 55.3146 14.3674 55.6357 13.65 56.25ZM37.5 11.25C38.4946 11.25 39.4484 10.8549 40.1516 10.1516C40.8549 9.44839 41.25 8.49456 41.25 7.5V3.75C41.25 2.75544 40.8549 1.80161 40.1516 1.09835C39.4484 0.395088 38.4946 0 37.5 0C36.5054 0 35.5516 0.395088 34.8484 1.09835C34.1451 1.80161 33.75 2.75544 33.75 3.75V7.5C33.75 8.49456 34.1451 9.44839 34.8484 10.1516C35.5516 10.8549 36.5054 11.25 37.5 11.25ZM58.725 20.025C59.7088 20.0209 60.6515 19.6303 61.35 18.9375L64.0125 16.275C64.4051 15.9388 64.7239 15.5251 64.949 15.0599C65.1741 14.5946 65.3005 14.0879 65.3205 13.5715C65.3404 13.055 65.2534 12.54 65.0649 12.0588C64.8764 11.5776 64.5904 11.1405 64.2249 10.7751C63.8595 10.4096 63.4224 10.1236 62.9412 9.93511C62.46 9.74658 61.945 9.65956 61.4286 9.67951C60.9121 9.69945 60.4054 9.82594 59.9401 10.051C59.4749 10.2761 59.0612 10.5949 58.725 10.9875L56.25 13.65C55.5516 14.3526 55.1595 15.3031 55.1595 16.2937C55.1595 17.2844 55.5516 18.2349 56.25 18.9375C56.9111 19.5951 57.7935 19.9828 58.725 20.025ZM13.725 18.9375C14.4235 19.6303 15.3662 20.0209 16.35 20.025C16.8435 20.0279 17.3328 19.9333 17.7896 19.7466C18.2465 19.56 18.6621 19.2851 19.0125 18.9375C19.7109 18.2349 20.103 17.2844 20.103 16.2937C20.103 15.3031 19.7109 14.3526 19.0125 13.65L16.35 10.9875C16.0028 10.6354 15.5897 10.3551 15.1342 10.1627C14.6787 9.97023 14.1897 9.86939 13.6953 9.86591C13.2008 9.86242 12.7105 9.95637 12.2523 10.1424C11.7941 10.3284 11.3771 10.6028 11.025 10.95C10.6729 11.2972 10.3926 11.7103 10.2002 12.1658C10.0077 12.6213 9.90689 13.1103 9.90341 13.6047C9.89637 14.6034 10.2863 15.5639 10.9875 16.275L13.725 18.9375ZM71.25 33.75H67.5C66.5054 33.75 65.5516 34.1451 64.8483 34.8484C64.1451 35.5516 63.75 36.5054 63.75 37.5C63.75 38.4946 64.1451 39.4484 64.8483 40.1516C65.5516 40.8549 66.5054 41.25 67.5 41.25H71.25C72.2446 41.25 73.1984 40.8549 73.9017 40.1516C74.6049 39.4484 75 38.4946 75 37.5C75 36.5054 74.6049 35.5516 73.9017 34.8484C73.1984 34.1451 72.2446 33.75 71.25 33.75ZM61.35 56.25C60.6376 55.8537 59.8154 55.7004 59.008 55.8133C58.2006 55.9261 57.452 56.299 56.8755 56.8755C56.299 57.452 55.9261 58.2006 55.8133 59.008C55.7004 59.8154 55.8537 60.6376 56.25 61.35L58.9125 64.0125C59.6151 64.7109 60.5656 65.103 61.5563 65.103C62.547 65.103 63.4974 64.7109 64.2 64.0125C64.8984 63.3099 65.2905 62.3594 65.2905 61.3687C65.2905 60.3781 64.8984 59.4276 64.2 58.725L61.35 56.25ZM37.5 16.875C33.4208 16.875 29.4331 18.0846 26.0414 20.3509C22.6496 22.6172 20.006 25.8384 18.445 29.6072C16.8839 33.3759 16.4755 37.5229 17.2713 41.5237C18.0671 45.5246 20.0315 49.1996 22.9159 52.0841C25.8004 54.9685 29.4754 56.9329 33.4763 57.7287C37.4771 58.5245 41.6241 58.1161 45.3928 56.555C49.1616 54.994 52.3828 52.3504 54.6491 48.9586C56.9154 45.5669 58.125 41.5792 58.125 37.5C58.1151 32.033 55.9389 26.7927 52.0731 22.9269C48.2073 19.0611 42.967 16.8849 37.5 16.875ZM37.5 50.625C34.9041 50.625 32.3665 49.8552 30.2081 48.413C28.0497 46.9708 26.3675 44.921 25.3741 42.5227C24.3807 40.1244 24.1208 37.4854 24.6272 34.9394C25.1336 32.3934 26.3837 30.0548 28.2192 28.2192C30.0548 26.3837 32.3934 25.1336 34.9394 24.6272C37.4854 24.1208 40.1244 24.3807 42.5227 25.3741C44.921 26.3675 46.9708 28.0497 48.413 30.2081C49.8552 32.3665 50.625 34.9041 50.625 37.5C50.625 40.981 49.2422 44.3194 46.7808 46.7808C44.3194 49.2422 40.981 50.625 37.5 50.625ZM37.5 63.75C36.5054 63.75 35.5516 64.1451 34.8484 64.8483C34.1451 65.5516 33.75 66.5054 33.75 67.5V71.25C33.75 72.2446 34.1451 73.1984 34.8484 73.9017C35.5516 74.6049 36.5054 75 37.5 75C38.4946 75 39.4484 74.6049 40.1516 73.9017C40.8549 73.1984 41.25 72.2446 41.25 71.25V67.5C41.25 66.5054 40.8549 65.5516 40.1516 64.8483C39.4484 64.1451 38.4946 63.75 37.5 63.75Z" fill="#F3AB85"/>
</svg>
